<svg xmlns="http://www.w3.org/2000/svg" viewBox="0 0 277.13 58.11"><defs><style>.cls-1{fill:#ee4036;}.cls-2{fill:#d0d2d3;}</style></defs><title>Asset 1</title><g id="Layer_2" data-name="Layer 2"><g id="Layer_1-2" data-name="Layer 1"><path class="cls-1" d="M154,18.34c-7.24,14.65-7.14,19-7.14,19-.19,6.35,7.14,6.18,7.14,6.18,6.74-.22,6.79-5.88,6.79-5.88C161,32.77,154,18.34,154,18.34Z"/><path d="M0,7.77V0H8.35V7.77ZM0,43.15V11.56H8.35V43.15Z"/><path d="M32.1,43.15V24c0-2.44-.4-4.08-1.22-4.94s-2.2-1.28-4.17-1.28q-6.48,0-6.48,7.25V43.15H11.88V11.56h8v4.61a10.16,10.16,0,0,1,3.9-4.12A12.54,12.54,0,0,1,30,10.66a12.23,12.23,0,0,1,4.16.68,8.72,8.72,0,0,1,3.29,2,9.69,9.69,0,0,1,2.18,3.31,12,12,0,0,1,.8,4.54V43.15Z"/><path d="M49,11.56h8.35V45.27a13.69,13.69,0,0,1-1,5.23,12.59,12.59,0,0,1-2.63,4,11.6,11.6,0,0,1-3.94,2.63,12.8,12.8,0,0,1-4.9.93q-6.46,0-9.57-3.56t-3.11-9.67h7.83a8,8,0,0,0,1,4.27,3.74,3.74,0,0,0,3.43,1.58A3.84,3.84,0,0,0,48,49.18,7.67,7.67,0,0,0,49,45Zm0-3.79V0h8.35V7.77Z"/><path d="M81.29,43.15V38.72Q78.08,44,71.46,44a11,11,0,0,1-4.33-.83,9.61,9.61,0,0,1-3.37-2.38,11.21,11.21,0,0,1-2.22-3.66,13.41,13.41,0,0,1-.8-4.75V11.56h8.35V31.08c0,3.94,1.77,5.9,5.33,5.9a5.84,5.84,0,0,0,4.84-2,7.91,7.91,0,0,0,1.64-5.17V11.56h8.28V43.15Z"/><path d="M92.52,43.15V11.56h7.84v3.76a10.29,10.29,0,0,1,2.15-2.53,9.65,9.65,0,0,1,2.31-1.39,8.63,8.63,0,0,1,2.41-.61,22.6,22.6,0,0,1,2.5-.13h1.09v8.6a13.85,13.85,0,0,0-2.31-.19q-7.64,0-7.64,7.64V43.15Z"/><path d="M132.84,39a6.57,6.57,0,0,1-3.24,3.3,11.57,11.57,0,0,1-5.29,1.19,13.09,13.09,0,0,1-4.63-.8A10.66,10.66,0,0,1,116,40.36a10.8,10.8,0,0,1-2.41-3.6,12.33,12.33,0,0,1-.86-4.72V11.56h8.34V30.82q0,5.91,5.33,5.91a6.52,6.52,0,0,0,4.66-1.67,5.57,5.57,0,0,0,1.76-4.24V11.56h8.35V44a15,15,0,0,1-1.12,6A12.76,12.76,0,0,1,137,54.39a13.88,13.88,0,0,1-4.63,2.76,16.6,16.6,0,0,1-5.68,1c-4.67,0-8.15-1.19-10.47-3.56s-3.46-5.62-3.46-9.73h7.77a5.93,5.93,0,0,0,1.63,4.43,6.78,6.78,0,0,0,4.92,1.6,5.24,5.24,0,0,0,2.18-.47A6.12,6.12,0,0,0,131.08,49a6.45,6.45,0,0,0,1.28-2.14,7.89,7.89,0,0,0,.48-2.81Z"/><path class="cls-2" d="M195.52,31.72a13.38,13.38,0,0,1-1.57,5,13.67,13.67,0,0,1-3.18,3.85,14.34,14.34,0,0,1-4.4,2.5,16.6,16.6,0,0,1-11.23-.16,11.88,11.88,0,0,1-4.59-3.21,14.9,14.9,0,0,1-3-5.33A23.32,23.32,0,0,1,166.5,27a22.44,22.44,0,0,1,1.06-7.32,13.05,13.05,0,0,1,3-5,11.92,11.92,0,0,1,4.65-2.92,19.35,19.35,0,0,1,11.69-.13A13.08,13.08,0,0,1,191.32,14a11.71,11.71,0,0,1,3,3.85,13.51,13.51,0,0,1,1.29,5h-8.42A5.74,5.74,0,0,0,185.22,19a6,6,0,0,0-4-1.38,6.81,6.81,0,0,0-2.5.45,4.81,4.81,0,0,0-2,1.51,7.74,7.74,0,0,0-1.38,2.82,15.43,15.43,0,0,0-.52,4.34q0,5.19,1.86,7.7A5.34,5.34,0,0,0,181,37a6.65,6.65,0,0,0,4.17-1.34,5.38,5.38,0,0,0,2-3.92Z"/><path class="cls-2" d="M213.15,44a18.2,18.2,0,0,1-6.86-1.22,14.21,14.21,0,0,1-5.09-3.41A14.67,14.67,0,0,1,198,34.08a20.35,20.35,0,0,1-1.09-6.76,19.79,19.79,0,0,1,1.13-6.82,14.55,14.55,0,0,1,3.23-5.27,14.36,14.36,0,0,1,5.1-3.38,18.15,18.15,0,0,1,6.76-1.19,17.72,17.72,0,0,1,6.66,1.19,14.39,14.39,0,0,1,5,3.34,14.67,14.67,0,0,1,3.21,5.25,20.22,20.22,0,0,1,1.12,6.88,19.92,19.92,0,0,1-1.12,6.85,15,15,0,0,1-3.21,5.25,14.13,14.13,0,0,1-5.06,3.37A17.63,17.63,0,0,1,213.15,44Zm0-7q7.63,0,7.64-9.63t-7.64-9.56q-7.63,0-7.64,9.56T213.18,37Z"/><path class="cls-2" d="M269,43.15V24a7.6,7.6,0,0,0-1.35-4.68,4.28,4.28,0,0,0-3.6-1.8,4.65,4.65,0,0,0-3.82,1.93,7.59,7.59,0,0,0-1.51,4.81V43.15h-8.34v-19A15.75,15.75,0,0,0,250.1,21a4.16,4.16,0,0,0-.87-1.93,3.3,3.3,0,0,0-1.57-1,8.2,8.2,0,0,0-2.31-.28q-5.07,0-5.07,6.16v19.2h-8.35V11.56h7.83v4.61a9.42,9.42,0,0,1,3.85-4.34,11.57,11.57,0,0,1,5.4-1.17,14.45,14.45,0,0,1,2.86.26,6.8,6.8,0,0,1,2.24.87,9,9,0,0,1,1.9,1.59,18.87,18.87,0,0,1,1.79,2.33,8.48,8.48,0,0,1,3.41-3.85,10.24,10.24,0,0,1,5.13-1.2,11.68,11.68,0,0,1,4.37.8,9.9,9.9,0,0,1,3.4,2.25,10.9,10.9,0,0,1,2.22,3.38,10.73,10.73,0,0,1,.8,4.12V43.15Z"/></g></g></svg>